<?xml version="1.0" standalone="no"?>
<!DOCTYPE svg PUBLIC "-//W3C//DTD SVG 20010904//EN"
 "http://www.w3.org/TR/2001/REC-SVG-20010904/DTD/svg10.dtd">
<svg version="1.0" xmlns="http://www.w3.org/2000/svg"
 width="500.000000pt" height="500.000000pt" viewBox="0 0 500.000000 500.000000"
 preserveAspectRatio="xMidYMid meet">

<g transform="translate(0.000000,500.000000) scale(0.100000,-0.100000)"
fill="#000000" stroke="none">
<path d="M2499 4778 c-7 -25 -9 -83 -7 -139 l5 -97 -56 -5 c-215 -22 -317 -39
-413 -71 -164 -54 -294 -124 -456 -249 -129 -100 -127 -99 -197 -92 -79 8
-118 28 -155 78 -24 32 -31 37 -36 23 -11 -28 46 -128 111 -192 l61 -62 -36
-39 c-35 -40 -100 -125 -176 -233 -97 -135 -108 -253 -40 -397 21 -43 55 -101
77 -130 21 -29 39 -61 39 -71 0 -42 -62 -68 -117 -49 -17 6 -23 5 -23 -6 0
-18 78 -71 126 -87 37 -13 40 -23 19 -60 -17 -29 -20 -123 -5 -151 11 -20 40
-27 40 -9 0 11 59 80 69 80 4 0 12 -19 18 -42 7 -24 38 -77 69 -118 79 -104
84 -119 84 -258 l0 -119 -71 -99 c-130 -183 -250 -378 -320 -522 -38 -78 -69
-152 -69 -163 0 -12 9 -36 19 -53 l20 -31 -73 -93 c-75 -95 -180 -267 -191
-313 -5 -19 -2 -28 10 -33 12 -4 19 3 27 25 18 53 79 161 122 219 23 30 50 69
60 85 25 41 67 85 81 85 6 0 58 -34 116 -75 57 -41 144 -96 193 -121 49 -25
128 -70 177 -100 94 -57 147 -75 66 -23 -26 18 -46 33 -44 36 2 2 37 -4 78
-12 78 -17 204 -22 254 -11 l30 7 -3 -394 c-3 -352 -1 -395 13 -400 14 -6 15
33 14 396 l0 402 23 12 c13 6 34 13 48 15 23 3 25 0 24 -37 -17 -557 -13 -854
12 -862 7 -2 11 131 11 448 1 367 3 453 14 460 8 4 39 11 69 14 60 7 163 35
156 43 -3 2 -34 4 -69 4 -67 -1 -190 -26 -320 -67 -101 -32 -157 -31 -296 5
-123 32 -244 83 -331 138 -102 66 -269 194 -275 211 -3 10 2 37 10 61 23 66
124 256 186 350 31 47 86 130 122 185 36 55 76 111 90 124 l26 24 6 -26 c5
-18 1 -31 -12 -44 -56 -56 -99 -125 -172 -272 -81 -164 -99 -218 -108 -323 -5
-55 -4 -58 38 -103 91 -99 238 -188 389 -236 127 -41 352 -30 520 26 l45 14
-65 -5 c-36 -3 -83 -10 -105 -15 -22 -5 -111 -12 -197 -16 l-158 -6 -62 38
c-35 21 -76 50 -91 64 -71 65 -147 213 -147 289 0 12 -4 22 -10 22 -31 0 10
-144 70 -242 21 -35 36 -65 35 -67 -7 -7 -146 92 -195 138 -49 46 -56 62 -52
133 2 29 64 94 166 173 62 48 86 54 106 30 11 -13 5 -22 -34 -56 -48 -42 -59
-63 -28 -52 48 17 165 118 217 188 63 85 75 90 138 47 23 -16 60 -41 82 -55
22 -15 54 -38 70 -52 l30 -26 -43 26 c-24 15 -46 25 -48 22 -2 -2 -7 -31 -10
-64 l-7 -61 86 -86 c47 -47 91 -86 98 -86 6 0 -27 40 -75 90 -75 78 -86 94
-86 125 0 19 2 35 4 35 2 0 14 -21 27 -47 52 -109 240 -263 343 -282 56 -10
159 -64 186 -96 10 -13 10 -19 -3 -33 -8 -9 -18 -32 -22 -50 -5 -23 -10 -30
-18 -24 -22 18 -95 35 -121 28 -40 -10 -31 -26 14 -26 43 0 104 -21 130 -45
16 -15 148 -65 171 -65 7 0 51 16 98 36 70 30 100 38 174 42 l90 5 -6 -49
c-12 -96 -28 -572 -25 -747 3 -164 4 -177 19 -165 15 12 18 63 23 483 l6 470
312 -4 c290 -3 319 -2 390 17 42 12 86 26 97 31 32 18 60 65 72 122 18 86 15
82 51 63 41 -21 141 -96 191 -143 21 -20 70 -83 109 -141 84 -125 83 -124 97
-116 16 10 -5 47 -107 183 -93 124 -167 193 -264 246 l-58 32 0 51 c0 167
-119 401 -298 586 -61 62 -61 73 -1 104 32 16 89 19 89 4 0 -5 6 -10 13 -10
22 0 47 67 47 125 0 51 2 55 28 61 43 11 119 52 125 68 8 21 -1 25 -38 19 -25
-4 -38 0 -54 16 -32 32 -26 52 35 111 74 73 150 188 170 258 13 42 15 80 11
152 -3 52 -8 103 -12 113 -14 34 19 17 67 -34 27 -29 51 -50 54 -47 11 11 -19
106 -52 166 -18 34 -34 66 -34 70 0 4 33 24 73 45 71 36 126 81 115 92 -3 3
-27 -6 -54 -20 -42 -23 -59 -26 -113 -23 -70 5 -91 20 -91 70 0 40 -67 243
-101 305 -15 29 -48 82 -73 119 -25 36 -43 71 -40 76 4 6 31 8 68 5 58 -5 79
-10 188 -53 26 -10 50 -15 54 -11 16 16 -172 161 -240 183 -46 16 -110 15
-161 -1 -19 -6 -20 -1 -20 87 0 108 -13 146 -57 171 -17 10 -32 16 -34 14 -2
-2 0 -28 6 -57 11 -59 13 -143 4 -153 -4 -4 -39 24 -79 61 -145 135 -402 235
-699 272 -49 6 -106 20 -126 30 -78 40 -125 127 -121 228 2 63 -14 68 -30 10z
m921 -548 c0 -5 -2 -10 -4 -10 -3 0 -8 5 -11 10 -3 6 -1 10 4 10 6 0 11 -4 11
-10z m177 -27 c-3 -10 -5 -4 -5 12 0 17 2 24 5 18 2 -7 2 -21 0 -30z m-1682
-1271 l0 -109 -50 31 c-37 22 -66 31 -112 34 -83 6 -128 -11 -185 -70 -26 -27
-48 -45 -48 -41 0 28 91 142 141 175 57 38 185 87 229 88 l25 0 0 -108z m868
-26 c30 -139 98 -243 219 -332 45 -34 88 -91 88 -119 0 -8 -10 -35 -22 -60
-27 -55 -19 -66 22 -31 47 39 54 32 23 -23 -15 -28 -25 -53 -22 -56 8 -7 122
57 171 96 20 16 46 29 57 29 27 0 51 10 51 22 0 5 -9 6 -21 3 -17 -6 -20 -3
-17 12 3 13 12 18 36 17 36 -2 39 2 15 28 -30 34 -7 28 62 -16 64 -39 70 -46
78 -86 12 -59 -7 -154 -40 -209 -56 -89 -196 -155 -281 -132 -63 17 -93 14
-134 -14 -41 -28 -227 -118 -303 -147 -220 -84 -434 -123 -589 -109 -89 9
-103 13 -159 49 -34 22 -91 56 -127 77 -199 117 -302 205 -343 295 -19 41 -21
65 -22 245 -1 110 -5 218 -10 240 -8 38 -7 39 10 25 16 -13 19 -13 29 4 39 66
70 96 120 121 65 32 102 29 178 -12 56 -30 67 -45 98 -136 16 -46 37 -81 67
-112 59 -62 83 -58 48 9 -9 16 -14 31 -11 33 2 2 21 -7 41 -21 36 -25 71 -37
144 -50 29 -5 32 -4 26 12 -4 9 -17 42 -28 73 l-21 55 32 46 c65 94 154 146
337 196 61 17 121 35 135 41 42 17 46 13 63 -63z m829 -822 c120 -149 161
-222 208 -367 19 -57 21 -85 18 -200 -3 -128 -4 -135 -30 -169 -15 -20 -51
-48 -80 -62 l-53 -27 -530 7 c-538 6 -584 4 -667 -31 -14 -5 -18 -2 -18 14 0
29 27 81 43 81 6 0 183 0 392 1 209 1 430 0 490 -1 181 -3 281 30 342 114 63
85 72 106 73 172 0 73 -29 193 -63 261 -30 58 -99 147 -174 226 -38 40 -53 62
-49 74 8 20 6 22 98 -93z m-2068 40 c4 -9 4 -19 1 -22 -3 -3 -5 0 -5 7 0 7 -5
9 -11 5 -8 -4 -8 -9 0 -17 17 -17 13 -31 -4 -17 -12 10 -15 10 -15 -4 0 -9 -5
-16 -11 -16 -6 0 -9 -7 -5 -15 8 -23 -14 -77 -28 -67 -7 6 -18 3 -30 -9 -21
-21 -15 -25 13 -9 13 6 24 5 37 -4 15 -12 16 -16 5 -30 -9 -11 -10 -16 -2 -16
6 0 11 -5 11 -11 0 -5 -5 -7 -11 -3 -6 3 -14 1 -18 -5 -10 -15 -41 -3 -41 15
0 8 -5 14 -11 14 -6 0 -8 -7 -5 -16 3 -9 6 -20 6 -25 0 -6 4 -8 9 -5 9 6 25
-23 17 -31 -9 -9 -46 9 -56 27 -14 26 32 128 89 200 22 28 41 56 41 61 0 15
17 10 24 -7z m1966 7 c0 -6 14 -25 31 -43 16 -18 61 -73 99 -123 77 -102 108
-178 117 -288 l6 -70 -26 7 c-15 3 -73 35 -129 71 -97 62 -134 76 -92 36 36
-36 189 -132 217 -138 40 -8 43 -25 12 -73 -14 -22 -30 -51 -35 -64 -6 -17
-28 -29 -92 -51 l-83 -27 -457 -3 c-252 -2 -471 -6 -489 -10 -29 -7 -30 -6
-19 15 15 28 117 92 207 130 40 17 130 44 200 61 197 47 204 49 210 65 6 16
-22 64 -37 64 -6 0 -8 -11 -4 -25 5 -19 1 -27 -17 -34 -36 -16 -280 -73 -285
-68 -5 4 58 53 187 147 34 25 52 47 61 74 7 22 26 49 41 60 26 19 41 21 174
20 110 -2 155 -6 190 -19 80 -31 240 -7 192 28 -9 7 -42 50 -74 97 -66 98
-103 140 -122 140 -22 0 -15 -18 22 -56 20 -20 35 -41 34 -48 -1 -6 -1 -24 0
-41 1 -21 4 -26 10 -17 7 11 10 10 15 -3 9 -25 7 -42 -4 -25 -5 9 -22 13 -44
12 -20 -2 -36 2 -36 7 0 15 18 23 22 9 2 -6 9 -8 16 -4 12 7 6 64 -10 81 -6 6
-7 4 -3 -6 7 -18 -41 -74 -50 -59 -3 6 -1 10 6 10 6 0 9 8 6 20 -3 11 -1 23 4
26 5 3 9 0 9 -7 0 -7 2 -10 5 -8 8 9 -7 49 -17 43 -6 -4 -8 1 -4 14 4 11 2 23
-4 27 -6 4 -9 3 -8 -2 2 -4 0 -9 -4 -10 -13 -5 -9 6 14 37 22 30 38 39 38 21z
m-1937 -46 c4 -8 2 -17 -3 -20 -6 -4 -10 3 -10 14 0 25 6 27 13 6z m-33 -39
c0 -3 -4 -8 -10 -11 -5 -3 -10 -1 -10 4 0 6 5 11 10 11 6 0 10 -2 10 -4z m75
-6 c3 -5 1 -10 -4 -10 -6 0 -11 5 -11 10 0 6 2 10 4 10 3 0 8 -4 11 -10z m-45
-4 c0 -3 -4 -8 -10 -11 -5 -3 -10 -1 -10 4 0 6 5 11 10 11 6 0 10 -2 10 -4z
m1675 -21 c39 0 83 4 99 9 19 6 27 6 23 -1 -8 -12 -72 -27 -104 -24 -17 2 -20
-2 -16 -19 4 -13 0 -26 -8 -31 -10 -6 -4 -9 18 -9 25 0 31 -4 27 -15 -8 -19
-61 -20 -80 -1 -11 11 -11 16 -1 19 7 3 5 6 -5 6 -11 1 -18 -6 -18 -17 0 -10
-6 -19 -12 -20 -7 -1 -33 -5 -58 -8 -44 -6 -44 -5 -22 11 12 9 31 14 41 10 22
-7 53 29 44 51 -7 19 21 18 37 -1 12 -14 30 -12 30 4 0 13 -60 22 -80 11 -13
-7 -22 -5 -34 9 -24 27 -19 34 17 25 17 -4 64 -8 102 -9z m-1715 -5 c0 -5 -2
-10 -4 -10 -3 0 -8 5 -11 10 -3 6 -1 10 4 10 6 0 11 -4 11 -10z m151 -20 c23
-13 24 -26 3 -34 -12 -4 -15 -2 -11 9 4 8 -1 19 -11 24 -23 14 -6 14 19 1z
m1744 -31 c-8 -12 23 -38 47 -39 11 0 15 -5 12 -14 -4 -11 -12 -12 -36 -4 -16
6 -32 17 -35 24 -3 8 -10 11 -15 8 -6 -4 -5 3 1 15 7 11 16 21 22 21 6 0 7 -5
4 -11z m-85 -28 c0 -12 -20 -25 -27 -18 -7 7 6 27 18 27 5 0 9 -4 9 -9z
m-1790 -21 c0 -5 -4 -10 -10 -10 -5 0 -10 5 -10 10 0 6 5 10 10 10 6 0 10 -4
10 -10z m2010 1 c0 -6 -10 -8 -21 -6 -33 6 -36 15 -6 15 15 0 27 -4 27 -9z
m-718 -100 c-3 -48 0 -86 7 -97 10 -18 11 -18 17 4 8 27 6 27 55 1 50 -25 50
-25 -85 -121 -55 -39 -147 -107 -204 -150 -57 -43 -110 -78 -119 -78 -8 0 -31
14 -51 31 -43 38 -127 77 -193 89 -51 10 -182 94 -187 121 -3 15 97 79 123 79
7 0 16 -11 19 -25 9 -37 28 -31 22 8 -11 64 -11 82 -1 81 6 -1 48 -8 95 -17
86 -16 254 -41 345 -52 28 -3 57 -1 65 5 11 7 -2 10 -45 10 -33 0 -76 4 -95 9
-19 5 -77 15 -127 21 -51 7 -93 16 -93 20 0 5 35 16 78 25 75 17 262 73 332
100 19 8 38 14 41 14 3 1 4 -34 1 -78z m88 43 c0 -18 9 -18 32 3 10 9 21 13
26 8 4 -4 1 -10 -6 -12 -7 -3 -18 -10 -25 -17 -13 -14 -52 -36 -61 -36 -8 0
-7 75 1 83 9 9 33 -12 33 -29z m60 32 c0 -8 -51 -13 -56 -5 -3 5 9 9 25 9 17
0 31 -2 31 -4z m25 -6 c-3 -5 3 -15 15 -22 27 -17 25 -26 -4 -21 -17 4 -23 11
-21 26 3 26 3 27 11 27 3 0 2 -4 -1 -10z m68 -10 c-10 -11 -18 -20 -18 -20 0
0 -1 9 -1 20 0 12 7 20 18 20 17 0 17 -1 1 -20z m447 12 c0 -5 -7 -9 -15 -9
-8 0 -12 4 -9 9 3 4 9 8 15 8 5 0 9 -4 9 -8z m-1920 -5 c0 -2 -9 -12 -19 -21
-19 -17 -19 -17 -14 3 3 12 12 21 19 21 8 0 14 -2 14 -3z m-234 -22 c-3 -10 1
-15 14 -15 10 0 22 -4 25 -10 3 -5 2 -10 -3 -10 -6 0 -33 -21 -61 -46 -54 -48
-64 -50 -32 -6 10 15 26 44 34 65 15 34 36 55 23 22z m119 5 c3 -5 1 -10 -4
-10 -6 0 -11 5 -11 10 0 6 2 10 4 10 3 0 8 -4 11 -10z m535 -101 c-43 -12 -56
-10 -35 5 10 7 28 11 39 8 20 -6 20 -6 -4 -13z m145 -35 c-26 -19 -52 -18 -64
4 -8 15 -4 17 37 13 42 -3 44 -5 27 -17z m466 -515 c-24 -20 -45 -20 -106 -1
-18 5 -18 6 5 13 14 4 48 7 75 8 l50 0 -24 -20z"/>
<path d="M2410 2813 c-8 -3 -26 -10 -39 -15 -40 -15 -16 -20 35 -7 56 13 80
29 44 28 -14 0 -32 -3 -40 -6z"/>
<path d="M2426 2767 c-33 -18 -62 -39 -65 -47 -3 -12 -1 -13 10 -4 8 6 44 22
82 34 86 29 133 23 243 -30 88 -42 152 -103 201 -189 14 -25 33 -52 41 -58 18
-15 72 -17 72 -4 0 25 -75 133 -119 172 -103 93 -249 159 -351 158 -43 0 -68
-7 -114 -32z"/>
<path d="M1705 2718 c-39 -30 -55 -76 -55 -156 0 -60 4 -74 29 -110 53 -72
120 -64 164 19 14 27 17 48 13 101 -5 75 -23 116 -62 147 -34 27 -54 26 -89
-1z m113 -189 c1 -13 -7 -39 -18 -57 -16 -26 -26 -33 -47 -30 -29 3 -60 40
-65 78 -2 20 2 26 27 31 17 4 46 6 65 4 29 -2 35 -6 38 -26z"/>
<path d="M2465 2638 c-79 -46 -97 -210 -32 -291 23 -29 77 -44 120 -33 36 9
84 62 95 106 20 80 -2 156 -58 204 -34 28 -89 35 -125 14z m113 -189 c39 -13
40 -28 6 -68 -20 -25 -34 -31 -63 -31 -42 0 -67 20 -80 66 -14 49 -5 57 53 50
28 -4 66 -11 84 -17z"/>
<path d="M3406 2395 c-7 -19 3 -47 15 -39 12 7 12 54 0 54 -5 0 -11 -7 -15
-15z"/>
<path d="M3211 2262 c-22 -53 -11 -94 32 -121 29 -17 42 -20 50 -12 8 8 7 11
-4 11 -8 0 -23 6 -33 13 -17 12 -17 15 -2 52 9 21 14 45 12 52 -8 21 14 15 52
-14 19 -14 33 -20 30 -13 -7 23 -51 50 -89 56 -33 6 -37 3 -48 -24z"/>
<path d="M3354 2165 c-10 -8 -14 -15 -8 -15 5 0 19 7 30 15 10 8 14 15 8 15
-5 0 -19 -7 -30 -15z"/>
<path d="M2889 2100 c-2 -15 -13 -27 -29 -31 -20 -6 -21 -7 -5 -8 31 -1 47 14
43 40 l-4 24 -5 -25z"/>
<path d="M1466 2021 c-4 -7 -5 -15 -2 -18 9 -9 19 4 14 18 -4 11 -6 11 -12 0z"/>
<path d="M1450 1920 c0 -5 5 -10 10 -10 6 0 10 5 10 10 0 6 -4 10 -10 10 -5 0
-10 -4 -10 -10z"/>
<path d="M2900 1835 c0 -8 4 -15 10 -15 5 0 7 7 4 15 -4 8 -8 15 -10 15 -2 0
-4 -7 -4 -15z"/>
<path d="M3868 1225 c-64 -7 -141 -21 -170 -30 -56 -18 -158 -64 -158 -70 0
-2 42 11 93 29 85 31 197 55 197 43 0 -3 -39 -18 -86 -32 -99 -30 -200 -73
-192 -81 3 -3 34 7 68 21 34 14 116 42 183 61 98 29 145 37 240 41 65 3 115 9
110 13 -16 15 -170 18 -285 5z"/>
<path d="M2815 1128 c-12 -137 -23 -458 -24 -717 -1 -208 0 -242 12 -232 11 9
16 62 21 239 9 322 12 780 5 787 -4 3 -10 -32 -14 -77z"/>
<path d="M956 960 c-14 -17 -26 -36 -26 -41 0 -18 17 -9 30 16 7 14 17 25 22
25 5 0 20 -25 34 -55 24 -53 40 -72 50 -62 8 8 -43 111 -64 130 -19 17 -20 17
-46 -13z"/>
<path d="M3825 846 c-15 -35 -25 -70 -22 -78 5 -15 41 60 52 110 10 50 0 38
-30 -32z"/>
<path d="M3461 623 c1 -30 15 -58 22 -46 7 11 -8 63 -18 63 -3 0 -5 -8 -4 -17z"/>
<path d="M1691 484 c0 -11 3 -14 6 -6 3 7 2 16 -1 19 -3 4 -6 -2 -5 -13z"/>
<path d="M2420 374 c0 -38 44 -332 52 -344 10 -16 11 -20 -23 205 -11 77 -22
141 -25 144 -2 2 -4 0 -4 -5z"/>
<path d="M2360 217 c0 -14 5 -29 10 -32 7 -4 8 3 4 22 -9 38 -14 42 -14 10z"/>
<path d="M2381 114 c0 -11 3 -14 6 -6 3 7 2 16 -1 19 -3 4 -6 -2 -5 -13z"/>
</g>
</svg>
